<mxfile host="Electron" modified="2023-06-23T19:52:28.824Z" agent="Mozilla/5.0 (Windows NT 10.0; Win64; x64) AppleWebKit/537.36 (KHTML, like Gecko) draw.io/21.5.0 Chrome/112.0.5615.204 Electron/24.5.1 Safari/537.36" etag="3CECl0-JqJkb9durYS_E" version="21.5.0" type="device">
  <diagram name="Página-1" id="p0jxKezAPcnScCQivxex">
    <mxGraphModel dx="1404" dy="856" grid="1" gridSize="10" guides="1" tooltips="1" connect="1" arrows="1" fold="1" page="1" pageScale="1" pageWidth="1169" pageHeight="827" background="#ffffff" math="0" shadow="0">
      <root>
        <mxCell id="0" />
        <mxCell id="1" parent="0" />
        <mxCell id="Nv-1vYLAJScvbzzwSCoc-95" value="" style="group;fontSize=16;fontFamily=Helvetica;fontColor=default;fillColor=none;gradientColor=none;html=1;" parent="1" vertex="1" connectable="0">
          <mxGeometry x="150" y="610" width="480" height="190" as="geometry" />
        </mxCell>
        <mxCell id="Nv-1vYLAJScvbzzwSCoc-96" value="" style="rounded=0;whiteSpace=wrap;html=1;fontSize=16;glass=0;strokeColor=none;fillColor=#fff1f0;fontFamily=Helvetica;fontColor=default;" parent="Nv-1vYLAJScvbzzwSCoc-95" vertex="1">
          <mxGeometry width="480" height="190" as="geometry" />
        </mxCell>
        <mxCell id="Nv-1vYLAJScvbzzwSCoc-97" value="&lt;font style=&quot;font-size: 14px;&quot;&gt;&lt;b&gt;package&lt;/b&gt;: &lt;font face=&quot;Courier New&quot;&gt;seres-vivos&lt;/font&gt;&lt;/font&gt;" style="shape=umlFrame;whiteSpace=wrap;html=1;pointerEvents=0;fontSize=16;width=190;height=30;align=left;spacingLeft=8;spacingRight=8;fillColor=#f8cecc;strokeColor=#b85450;fontFamily=Helvetica;" parent="Nv-1vYLAJScvbzzwSCoc-95" vertex="1">
          <mxGeometry width="480" height="190" as="geometry" />
        </mxCell>
        <mxCell id="Nv-1vYLAJScvbzzwSCoc-92" value="" style="group;fontSize=16;fontFamily=Helvetica;fontColor=default;fillColor=none;gradientColor=none;html=1;" parent="1" vertex="1" connectable="0">
          <mxGeometry x="650" y="610" width="480" height="190" as="geometry" />
        </mxCell>
        <mxCell id="Nv-1vYLAJScvbzzwSCoc-93" value="" style="rounded=0;whiteSpace=wrap;html=1;fontSize=16;glass=0;strokeColor=none;fillColor=#fff8e5;fontFamily=Helvetica;fontColor=default;" parent="Nv-1vYLAJScvbzzwSCoc-92" vertex="1">
          <mxGeometry width="480" height="190" as="geometry" />
        </mxCell>
        <mxCell id="Nv-1vYLAJScvbzzwSCoc-94" value="&lt;font style=&quot;font-size: 14px;&quot;&gt;&lt;b&gt;package&lt;/b&gt;: &lt;font face=&quot;Courier New&quot;&gt;objetos-del-mar&lt;/font&gt;&lt;/font&gt;" style="shape=umlFrame;whiteSpace=wrap;html=1;pointerEvents=0;fontSize=16;width=220;height=30;align=left;spacingLeft=8;spacingRight=8;fillColor=#fff2cc;strokeColor=#d6b656;fontFamily=Helvetica;" parent="Nv-1vYLAJScvbzzwSCoc-92" vertex="1">
          <mxGeometry width="480" height="190" as="geometry" />
        </mxCell>
        <mxCell id="Nv-1vYLAJScvbzzwSCoc-89" value="" style="group;fontSize=16;fontFamily=Helvetica;fontColor=default;fillColor=none;gradientColor=none;html=1;" parent="1" vertex="1" connectable="0">
          <mxGeometry x="230" y="220" width="900" height="370" as="geometry" />
        </mxCell>
        <mxCell id="Nv-1vYLAJScvbzzwSCoc-90" value="" style="rounded=0;whiteSpace=wrap;html=1;fontSize=16;glass=0;strokeColor=none;fillColor=#f9f0ff;fontFamily=Helvetica;fontColor=default;" parent="Nv-1vYLAJScvbzzwSCoc-89" vertex="1">
          <mxGeometry width="900" height="370" as="geometry" />
        </mxCell>
        <mxCell id="Nv-1vYLAJScvbzzwSCoc-91" value="&lt;font style=&quot;font-size: 14px;&quot;&gt;&lt;b&gt;package&lt;/b&gt;: &lt;font face=&quot;Courier New&quot;&gt;transportes&lt;/font&gt;&lt;/font&gt;" style="shape=umlFrame;whiteSpace=wrap;html=1;pointerEvents=0;fontSize=16;width=190;height=30;align=left;spacingLeft=8;spacingRight=8;fillColor=#e1d5e7;strokeColor=#9673a6;fontFamily=Helvetica;" parent="Nv-1vYLAJScvbzzwSCoc-89" vertex="1">
          <mxGeometry width="900" height="370" as="geometry" />
        </mxCell>
        <mxCell id="Nv-1vYLAJScvbzzwSCoc-85" value="" style="group;fontSize=16;fontFamily=Helvetica;fontColor=default;fillColor=none;gradientColor=none;html=1;" parent="1" vertex="1" connectable="0">
          <mxGeometry x="50" y="40" width="1080" height="150" as="geometry" />
        </mxCell>
        <mxCell id="Nv-1vYLAJScvbzzwSCoc-86" value="" style="rounded=0;whiteSpace=wrap;html=1;fontSize=16;glass=0;strokeColor=none;fillColor=#effbef;fontFamily=Helvetica;fontColor=default;" parent="Nv-1vYLAJScvbzzwSCoc-85" vertex="1">
          <mxGeometry width="1080" height="150" as="geometry" />
        </mxCell>
        <mxCell id="Nv-1vYLAJScvbzzwSCoc-87" value="&lt;font style=&quot;font-size: 14px;&quot;&gt;&lt;b&gt;package&lt;/b&gt;: &lt;font face=&quot;Courier New&quot;&gt;interfaces&lt;/font&gt;&lt;/font&gt;" style="shape=umlFrame;whiteSpace=wrap;html=1;pointerEvents=0;fontSize=16;width=180;height=30;align=left;spacingLeft=8;spacingRight=8;fillColor=#d5e8d4;strokeColor=#82b366;fontFamily=Helvetica;fontColor=default;" parent="Nv-1vYLAJScvbzzwSCoc-85" vertex="1">
          <mxGeometry width="1080" height="150" as="geometry" />
        </mxCell>
        <mxCell id="Nv-1vYLAJScvbzzwSCoc-2" value="&amp;lt;&amp;lt;Interface&amp;gt;&amp;gt;&lt;br style=&quot;font-size: 12px;&quot;&gt;&lt;b style=&quot;&quot;&gt;&lt;font style=&quot;font-size: 14px;&quot;&gt;ObjetoFlotante&lt;/font&gt;&lt;/b&gt;" style="swimlane;fontStyle=0;align=center;verticalAlign=top;childLayout=stackLayout;horizontal=1;startSize=40;horizontalStack=0;resizeParent=1;resizeParentMax=0;resizeLast=0;collapsible=0;marginBottom=0;html=1;whiteSpace=wrap;fontSize=12;fillColor=#d5e8d4;strokeColor=#82b366;" parent="1" vertex="1">
          <mxGeometry x="840" y="90" width="170" height="68" as="geometry" />
        </mxCell>
        <mxCell id="Nv-1vYLAJScvbzzwSCoc-7" value="" style="line;strokeWidth=1;fillColor=#d5e8d4;align=left;verticalAlign=middle;spacingTop=-1;spacingLeft=3;spacingRight=3;rotatable=0;labelPosition=right;points=[];portConstraint=eastwest;fontSize=16;labelBackgroundColor=default;strokeColor=#82b366;" parent="Nv-1vYLAJScvbzzwSCoc-2" vertex="1">
          <mxGeometry y="40" width="170" height="8" as="geometry" />
        </mxCell>
        <mxCell id="Nv-1vYLAJScvbzzwSCoc-9" value="+ flotar()" style="text;html=1;strokeColor=none;fillColor=none;align=left;verticalAlign=middle;spacingLeft=4;spacingRight=4;overflow=hidden;rotatable=0;points=[[0,0.5],[1,0.5]];portConstraint=eastwest;whiteSpace=wrap;fontSize=12;" parent="Nv-1vYLAJScvbzzwSCoc-2" vertex="1">
          <mxGeometry y="48" width="170" height="20" as="geometry" />
        </mxCell>
        <mxCell id="Nv-1vYLAJScvbzzwSCoc-16" value="Pájaro" style="swimlane;fontStyle=1;align=center;verticalAlign=middle;childLayout=stackLayout;horizontal=1;startSize=26;horizontalStack=0;resizeParent=1;resizeParentMax=0;resizeLast=0;collapsible=1;marginBottom=0;whiteSpace=wrap;html=1;fontSize=14;fillColor=#f8cecc;strokeColor=#b85450;" parent="1" vertex="1">
          <mxGeometry x="210" y="666" width="170" height="78" as="geometry" />
        </mxCell>
        <mxCell id="Nv-1vYLAJScvbzzwSCoc-17" value="// attributes" style="text;strokeColor=none;fillColor=none;align=left;verticalAlign=middle;spacingLeft=4;spacingRight=4;overflow=hidden;rotatable=0;points=[[0,0.5],[1,0.5]];portConstraint=eastwest;whiteSpace=wrap;html=1;fontSize=12;" parent="Nv-1vYLAJScvbzzwSCoc-16" vertex="1">
          <mxGeometry y="26" width="170" height="22" as="geometry" />
        </mxCell>
        <mxCell id="Nv-1vYLAJScvbzzwSCoc-18" value="" style="line;strokeWidth=1;fillColor=none;align=left;verticalAlign=top;spacingTop=-1;spacingLeft=3;spacingRight=3;rotatable=0;labelPosition=right;points=[];portConstraint=eastwest;strokeColor=inherit;fontSize=16;" parent="Nv-1vYLAJScvbzzwSCoc-16" vertex="1">
          <mxGeometry y="48" width="170" height="8" as="geometry" />
        </mxCell>
        <mxCell id="Nv-1vYLAJScvbzzwSCoc-33" value="&lt;font style=&quot;font-size: 12px;&quot;&gt;+&lt;b&gt;@&lt;/b&gt;&amp;nbsp;volar&lt;/font&gt;(&lt;font style=&quot;font-size: 12px;&quot;&gt;)&lt;/font&gt;" style="text;strokeColor=none;fillColor=none;align=left;verticalAlign=middle;spacingLeft=4;spacingRight=4;overflow=hidden;rotatable=0;points=[[0,0.5],[1,0.5]];portConstraint=eastwest;whiteSpace=wrap;html=1;fontSize=12;fontFamily=Helvetica;fontColor=default;" parent="Nv-1vYLAJScvbzzwSCoc-16" vertex="1">
          <mxGeometry y="56" width="170" height="22" as="geometry" />
        </mxCell>
        <mxCell id="Nv-1vYLAJScvbzzwSCoc-20" value="AparatoVolador" style="swimlane;fontStyle=3;align=center;verticalAlign=middle;childLayout=stackLayout;horizontal=1;startSize=26;horizontalStack=0;resizeParent=1;resizeParentMax=0;resizeLast=0;collapsible=1;marginBottom=0;whiteSpace=wrap;html=1;fontSize=14;fillColor=#e1d5e7;strokeColor=#9673a6;" parent="1" vertex="1">
          <mxGeometry x="350" y="260" width="169" height="78" as="geometry" />
        </mxCell>
        <mxCell id="Nv-1vYLAJScvbzzwSCoc-34" value="// attributes" style="text;strokeColor=none;fillColor=none;align=left;verticalAlign=middle;spacingLeft=4;spacingRight=4;overflow=hidden;rotatable=0;points=[[0,0.5],[1,0.5]];portConstraint=eastwest;whiteSpace=wrap;html=1;fontSize=12;" parent="Nv-1vYLAJScvbzzwSCoc-20" vertex="1">
          <mxGeometry y="26" width="169" height="22" as="geometry" />
        </mxCell>
        <mxCell id="Nv-1vYLAJScvbzzwSCoc-22" value="" style="line;strokeWidth=1;fillColor=none;align=left;verticalAlign=top;spacingTop=-1;spacingLeft=3;spacingRight=3;rotatable=0;labelPosition=right;points=[];portConstraint=eastwest;strokeColor=inherit;fontSize=16;" parent="Nv-1vYLAJScvbzzwSCoc-20" vertex="1">
          <mxGeometry y="48" width="169" height="8" as="geometry" />
        </mxCell>
        <mxCell id="Nv-1vYLAJScvbzzwSCoc-23" value="+ volar()" style="text;strokeColor=none;fillColor=none;align=left;verticalAlign=middle;spacingLeft=4;spacingRight=4;overflow=hidden;rotatable=0;points=[[0,0.5],[1,0.5]];portConstraint=eastwest;whiteSpace=wrap;html=1;fontSize=12;fontStyle=2" parent="Nv-1vYLAJScvbzzwSCoc-20" vertex="1">
          <mxGeometry y="56" width="169" height="22" as="geometry" />
        </mxCell>
        <mxCell id="Nv-1vYLAJScvbzzwSCoc-29" value="&amp;lt;&amp;lt;Interface&amp;gt;&amp;gt;&lt;br style=&quot;font-size: 12px;&quot;&gt;&lt;b style=&quot;&quot;&gt;&lt;font style=&quot;font-size: 14px;&quot;&gt;ObjetoVolador&lt;/font&gt;&lt;/b&gt;" style="swimlane;fontStyle=0;align=center;verticalAlign=top;childLayout=stackLayout;horizontal=1;startSize=40;horizontalStack=0;resizeParent=1;resizeParentMax=0;resizeLast=0;collapsible=0;marginBottom=0;html=1;whiteSpace=wrap;fontSize=12;fillColor=#d5e8d4;strokeColor=#82b366;" parent="1" vertex="1">
          <mxGeometry x="120" y="90" width="170" height="68" as="geometry" />
        </mxCell>
        <mxCell id="Nv-1vYLAJScvbzzwSCoc-30" value="" style="line;strokeWidth=1;fillColor=#d5e8d4;align=left;verticalAlign=middle;spacingTop=-1;spacingLeft=3;spacingRight=3;rotatable=0;labelPosition=right;points=[];portConstraint=eastwest;fontSize=16;labelBackgroundColor=default;strokeColor=#82b366;" parent="Nv-1vYLAJScvbzzwSCoc-29" vertex="1">
          <mxGeometry y="40" width="170" height="8" as="geometry" />
        </mxCell>
        <mxCell id="Nv-1vYLAJScvbzzwSCoc-31" value="+ volar()" style="text;html=1;strokeColor=none;fillColor=none;align=left;verticalAlign=middle;spacingLeft=4;spacingRight=4;overflow=hidden;rotatable=0;points=[[0,0.5],[1,0.5]];portConstraint=eastwest;whiteSpace=wrap;fontSize=12;" parent="Nv-1vYLAJScvbzzwSCoc-29" vertex="1">
          <mxGeometry y="48" width="170" height="20" as="geometry" />
        </mxCell>
        <mxCell id="Nv-1vYLAJScvbzzwSCoc-35" value="&amp;lt;&amp;lt;Interface&amp;gt;&amp;gt;&lt;br style=&quot;font-size: 12px;&quot;&gt;&lt;b style=&quot;&quot;&gt;&lt;font style=&quot;font-size: 14px;&quot;&gt;TransportadorDeCarga&lt;/font&gt;&lt;/b&gt;" style="swimlane;fontStyle=0;align=center;verticalAlign=top;childLayout=stackLayout;horizontal=1;startSize=40;horizontalStack=0;resizeParent=1;resizeParentMax=0;resizeLast=0;collapsible=0;marginBottom=0;html=1;whiteSpace=wrap;fontSize=12;fillColor=#d5e8d4;strokeColor=#82b366;" parent="1" vertex="1">
          <mxGeometry x="530" y="90" width="170" height="68" as="geometry" />
        </mxCell>
        <mxCell id="Nv-1vYLAJScvbzzwSCoc-36" value="" style="line;strokeWidth=1;fillColor=#d5e8d4;align=left;verticalAlign=middle;spacingTop=-1;spacingLeft=3;spacingRight=3;rotatable=0;labelPosition=right;points=[];portConstraint=eastwest;fontSize=16;labelBackgroundColor=default;strokeColor=#82b366;" parent="Nv-1vYLAJScvbzzwSCoc-35" vertex="1">
          <mxGeometry y="40" width="170" height="8" as="geometry" />
        </mxCell>
        <mxCell id="Nv-1vYLAJScvbzzwSCoc-37" value="+ transportarCarga()" style="text;html=1;strokeColor=none;fillColor=none;align=left;verticalAlign=middle;spacingLeft=4;spacingRight=4;overflow=hidden;rotatable=0;points=[[0,0.5],[1,0.5]];portConstraint=eastwest;whiteSpace=wrap;fontSize=12;" parent="Nv-1vYLAJScvbzzwSCoc-35" vertex="1">
          <mxGeometry y="48" width="170" height="20" as="geometry" />
        </mxCell>
        <mxCell id="Nv-1vYLAJScvbzzwSCoc-38" value="Bote" style="swimlane;fontStyle=3;align=center;verticalAlign=middle;childLayout=stackLayout;horizontal=1;startSize=26;horizontalStack=0;resizeParent=1;resizeParentMax=0;resizeLast=0;collapsible=1;marginBottom=0;whiteSpace=wrap;html=1;fontSize=14;fillColor=#e1d5e7;strokeColor=#9673a6;" parent="1" vertex="1">
          <mxGeometry x="940" y="260" width="169" height="78" as="geometry" />
        </mxCell>
        <mxCell id="Nv-1vYLAJScvbzzwSCoc-39" value="// attributes" style="text;strokeColor=none;fillColor=none;align=left;verticalAlign=middle;spacingLeft=4;spacingRight=4;overflow=hidden;rotatable=0;points=[[0,0.5],[1,0.5]];portConstraint=eastwest;whiteSpace=wrap;html=1;fontSize=12;" parent="Nv-1vYLAJScvbzzwSCoc-38" vertex="1">
          <mxGeometry y="26" width="169" height="22" as="geometry" />
        </mxCell>
        <mxCell id="Nv-1vYLAJScvbzzwSCoc-40" value="" style="line;strokeWidth=1;fillColor=#e1d5e7;align=left;verticalAlign=top;spacingTop=-1;spacingLeft=3;spacingRight=3;rotatable=0;labelPosition=right;points=[];portConstraint=eastwest;strokeColor=#9673a6;fontSize=16;" parent="Nv-1vYLAJScvbzzwSCoc-38" vertex="1">
          <mxGeometry y="48" width="169" height="8" as="geometry" />
        </mxCell>
        <mxCell id="Nv-1vYLAJScvbzzwSCoc-41" value="+ flotar()" style="text;strokeColor=none;fillColor=none;align=left;verticalAlign=middle;spacingLeft=4;spacingRight=4;overflow=hidden;rotatable=0;points=[[0,0.5],[1,0.5]];portConstraint=eastwest;whiteSpace=wrap;html=1;fontSize=12;fontStyle=2" parent="Nv-1vYLAJScvbzzwSCoc-38" vertex="1">
          <mxGeometry y="56" width="169" height="22" as="geometry" />
        </mxCell>
        <mxCell id="Nv-1vYLAJScvbzzwSCoc-42" value="" style="endArrow=block;dashed=1;endFill=0;endSize=10;html=1;rounded=0;fontFamily=Helvetica;fontSize=12;fontColor=default;edgeStyle=orthogonalEdgeStyle;" parent="1" source="Nv-1vYLAJScvbzzwSCoc-38" target="Nv-1vYLAJScvbzzwSCoc-2" edge="1">
          <mxGeometry width="160" relative="1" as="geometry">
            <mxPoint x="560" y="250" as="sourcePoint" />
            <mxPoint x="720" y="250" as="targetPoint" />
            <Array as="points">
              <mxPoint x="1025" y="209" />
              <mxPoint x="940" y="209" />
            </Array>
          </mxGeometry>
        </mxCell>
        <mxCell id="Nv-1vYLAJScvbzzwSCoc-43" value="" style="endArrow=block;dashed=1;endFill=0;endSize=10;html=1;rounded=0;fontFamily=Helvetica;fontSize=12;fontColor=default;edgeStyle=orthogonalEdgeStyle;" parent="1" source="Nv-1vYLAJScvbzzwSCoc-20" target="Nv-1vYLAJScvbzzwSCoc-29" edge="1">
          <mxGeometry width="160" relative="1" as="geometry">
            <mxPoint x="969" y="290" as="sourcePoint" />
            <mxPoint x="919" y="168" as="targetPoint" />
            <Array as="points">
              <mxPoint x="210" y="299" />
            </Array>
          </mxGeometry>
        </mxCell>
        <mxCell id="Nv-1vYLAJScvbzzwSCoc-44" value="" style="endArrow=block;dashed=1;endFill=0;endSize=10;html=1;rounded=0;fontFamily=Helvetica;fontSize=12;fontColor=default;edgeStyle=orthogonalEdgeStyle;" parent="1" source="Nv-1vYLAJScvbzzwSCoc-16" target="Nv-1vYLAJScvbzzwSCoc-29" edge="1">
          <mxGeometry width="160" relative="1" as="geometry">
            <mxPoint x="363" y="290" as="sourcePoint" />
            <mxPoint x="294" y="168" as="targetPoint" />
            <Array as="points">
              <mxPoint x="115" y="300" />
              <mxPoint x="190" y="300" />
            </Array>
          </mxGeometry>
        </mxCell>
        <mxCell id="Nv-1vYLAJScvbzzwSCoc-45" value="AviónAReacción" style="swimlane;fontStyle=1;align=center;verticalAlign=middle;childLayout=stackLayout;horizontal=1;startSize=26;horizontalStack=0;resizeParent=1;resizeParentMax=0;resizeLast=0;collapsible=1;marginBottom=0;whiteSpace=wrap;html=1;fontSize=14;fillColor=#e1d5e7;strokeColor=#9673a6;" parent="1" vertex="1">
          <mxGeometry x="250" y="468" width="170" height="78" as="geometry" />
        </mxCell>
        <mxCell id="Nv-1vYLAJScvbzzwSCoc-46" value="// attributes" style="text;strokeColor=none;fillColor=none;align=left;verticalAlign=middle;spacingLeft=4;spacingRight=4;overflow=hidden;rotatable=0;points=[[0,0.5],[1,0.5]];portConstraint=eastwest;whiteSpace=wrap;html=1;fontSize=12;" parent="Nv-1vYLAJScvbzzwSCoc-45" vertex="1">
          <mxGeometry y="26" width="170" height="22" as="geometry" />
        </mxCell>
        <mxCell id="Nv-1vYLAJScvbzzwSCoc-47" value="" style="line;strokeWidth=1;fillColor=none;align=left;verticalAlign=top;spacingTop=-1;spacingLeft=3;spacingRight=3;rotatable=0;labelPosition=right;points=[];portConstraint=eastwest;strokeColor=inherit;fontSize=16;" parent="Nv-1vYLAJScvbzzwSCoc-45" vertex="1">
          <mxGeometry y="48" width="170" height="8" as="geometry" />
        </mxCell>
        <mxCell id="Nv-1vYLAJScvbzzwSCoc-48" value="&lt;font style=&quot;font-size: 12px;&quot;&gt;+&lt;b&gt;@&lt;/b&gt;&amp;nbsp;volar&lt;/font&gt;(&lt;font style=&quot;font-size: 12px;&quot;&gt;)&lt;/font&gt;" style="text;strokeColor=none;fillColor=none;align=left;verticalAlign=middle;spacingLeft=4;spacingRight=4;overflow=hidden;rotatable=0;points=[[0,0.5],[1,0.5]];portConstraint=eastwest;whiteSpace=wrap;html=1;fontSize=12;fontFamily=Helvetica;fontColor=default;" parent="Nv-1vYLAJScvbzzwSCoc-45" vertex="1">
          <mxGeometry y="56" width="170" height="22" as="geometry" />
        </mxCell>
        <mxCell id="Nv-1vYLAJScvbzzwSCoc-49" value="Extends" style="endArrow=block;endSize=10;endFill=0;html=1;rounded=0;labelBackgroundColor=default;strokeColor=default;fontFamily=Helvetica;fontSize=12;fontColor=default;shape=connector;edgeStyle=orthogonalEdgeStyle;" parent="1" source="Nv-1vYLAJScvbzzwSCoc-45" target="Nv-1vYLAJScvbzzwSCoc-20" edge="1">
          <mxGeometry width="160" relative="1" as="geometry">
            <mxPoint x="560" y="250" as="sourcePoint" />
            <mxPoint x="720" y="250" as="targetPoint" />
            <Array as="points">
              <mxPoint x="335" y="403" />
              <mxPoint x="420" y="403" />
            </Array>
          </mxGeometry>
        </mxCell>
        <mxCell id="Nv-1vYLAJScvbzzwSCoc-51" value="Helicoptero" style="swimlane;fontStyle=1;align=center;verticalAlign=middle;childLayout=stackLayout;horizontal=1;startSize=26;horizontalStack=0;resizeParent=1;resizeParentMax=0;resizeLast=0;collapsible=1;marginBottom=0;whiteSpace=wrap;html=1;fontSize=14;fillColor=#e1d5e7;strokeColor=#9673a6;" parent="1" vertex="1">
          <mxGeometry x="460" y="468" width="170" height="100" as="geometry" />
        </mxCell>
        <mxCell id="Nv-1vYLAJScvbzzwSCoc-52" value="// attributes" style="text;strokeColor=none;fillColor=none;align=left;verticalAlign=middle;spacingLeft=4;spacingRight=4;overflow=hidden;rotatable=0;points=[[0,0.5],[1,0.5]];portConstraint=eastwest;whiteSpace=wrap;html=1;fontSize=12;" parent="Nv-1vYLAJScvbzzwSCoc-51" vertex="1">
          <mxGeometry y="26" width="170" height="22" as="geometry" />
        </mxCell>
        <mxCell id="Nv-1vYLAJScvbzzwSCoc-53" value="" style="line;strokeWidth=1;fillColor=none;align=left;verticalAlign=top;spacingTop=-1;spacingLeft=3;spacingRight=3;rotatable=0;labelPosition=right;points=[];portConstraint=eastwest;strokeColor=inherit;fontSize=16;" parent="Nv-1vYLAJScvbzzwSCoc-51" vertex="1">
          <mxGeometry y="48" width="170" height="8" as="geometry" />
        </mxCell>
        <mxCell id="Nv-1vYLAJScvbzzwSCoc-54" value="&lt;font style=&quot;font-size: 12px;&quot;&gt;+&lt;b&gt;@&lt;/b&gt;&amp;nbsp;volar&lt;/font&gt;(&lt;font style=&quot;font-size: 12px;&quot;&gt;)&lt;/font&gt;" style="text;strokeColor=none;fillColor=none;align=left;verticalAlign=middle;spacingLeft=4;spacingRight=4;overflow=hidden;rotatable=0;points=[[0,0.5],[1,0.5]];portConstraint=eastwest;whiteSpace=wrap;html=1;fontSize=12;fontFamily=Helvetica;fontColor=default;" parent="Nv-1vYLAJScvbzzwSCoc-51" vertex="1">
          <mxGeometry y="56" width="170" height="22" as="geometry" />
        </mxCell>
        <mxCell id="Nv-1vYLAJScvbzzwSCoc-61" value="&lt;font style=&quot;font-size: 12px;&quot;&gt;+&lt;b&gt;@&lt;/b&gt;&amp;nbsp;transportarCarga&lt;/font&gt;(&lt;font style=&quot;font-size: 12px;&quot;&gt;)&lt;/font&gt;" style="text;strokeColor=none;fillColor=none;align=left;verticalAlign=middle;spacingLeft=4;spacingRight=4;overflow=hidden;rotatable=0;points=[[0,0.5],[1,0.5]];portConstraint=eastwest;whiteSpace=wrap;html=1;fontSize=12;fontFamily=Helvetica;fontColor=default;" parent="Nv-1vYLAJScvbzzwSCoc-51" vertex="1">
          <mxGeometry y="78" width="170" height="22" as="geometry" />
        </mxCell>
        <mxCell id="Nv-1vYLAJScvbzzwSCoc-55" value="Hidroavión" style="swimlane;fontStyle=1;align=center;verticalAlign=middle;childLayout=stackLayout;horizontal=1;startSize=26;horizontalStack=0;resizeParent=1;resizeParentMax=0;resizeLast=0;collapsible=1;marginBottom=0;whiteSpace=wrap;html=1;fontSize=14;fillColor=#e1d5e7;strokeColor=#9673a6;" parent="1" vertex="1">
          <mxGeometry x="690" y="446" width="170" height="122" as="geometry" />
        </mxCell>
        <mxCell id="Nv-1vYLAJScvbzzwSCoc-56" value="// attributes" style="text;strokeColor=none;fillColor=none;align=left;verticalAlign=middle;spacingLeft=4;spacingRight=4;overflow=hidden;rotatable=0;points=[[0,0.5],[1,0.5]];portConstraint=eastwest;whiteSpace=wrap;html=1;fontSize=12;" parent="Nv-1vYLAJScvbzzwSCoc-55" vertex="1">
          <mxGeometry y="26" width="170" height="22" as="geometry" />
        </mxCell>
        <mxCell id="Nv-1vYLAJScvbzzwSCoc-57" value="" style="line;strokeWidth=1;fillColor=none;align=left;verticalAlign=top;spacingTop=-1;spacingLeft=3;spacingRight=3;rotatable=0;labelPosition=right;points=[];portConstraint=eastwest;strokeColor=inherit;fontSize=16;" parent="Nv-1vYLAJScvbzzwSCoc-55" vertex="1">
          <mxGeometry y="48" width="170" height="8" as="geometry" />
        </mxCell>
        <mxCell id="Nv-1vYLAJScvbzzwSCoc-58" value="&lt;font style=&quot;font-size: 12px;&quot;&gt;+&lt;b&gt;@&lt;/b&gt;&amp;nbsp;volar&lt;/font&gt;(&lt;font style=&quot;font-size: 12px;&quot;&gt;)&lt;/font&gt;" style="text;strokeColor=none;fillColor=none;align=left;verticalAlign=middle;spacingLeft=4;spacingRight=4;overflow=hidden;rotatable=0;points=[[0,0.5],[1,0.5]];portConstraint=eastwest;whiteSpace=wrap;html=1;fontSize=12;fontFamily=Helvetica;fontColor=default;" parent="Nv-1vYLAJScvbzzwSCoc-55" vertex="1">
          <mxGeometry y="56" width="170" height="22" as="geometry" />
        </mxCell>
        <mxCell id="Nv-1vYLAJScvbzzwSCoc-59" value="&lt;font style=&quot;font-size: 12px;&quot;&gt;+&lt;b&gt;@&lt;/b&gt;&amp;nbsp;flotar&lt;/font&gt;(&lt;font style=&quot;font-size: 12px;&quot;&gt;)&lt;/font&gt;" style="text;strokeColor=none;fillColor=none;align=left;verticalAlign=middle;spacingLeft=4;spacingRight=4;overflow=hidden;rotatable=0;points=[[0,0.5],[1,0.5]];portConstraint=eastwest;whiteSpace=wrap;html=1;fontSize=12;fontFamily=Helvetica;fontColor=default;" parent="Nv-1vYLAJScvbzzwSCoc-55" vertex="1">
          <mxGeometry y="78" width="170" height="22" as="geometry" />
        </mxCell>
        <mxCell id="Nv-1vYLAJScvbzzwSCoc-60" value="&lt;font style=&quot;font-size: 12px;&quot;&gt;+&lt;b&gt;@&lt;/b&gt;&amp;nbsp;transportarCarga&lt;/font&gt;(&lt;font style=&quot;font-size: 12px;&quot;&gt;)&lt;/font&gt;" style="text;strokeColor=none;fillColor=none;align=left;verticalAlign=middle;spacingLeft=4;spacingRight=4;overflow=hidden;rotatable=0;points=[[0,0.5],[1,0.5]];portConstraint=eastwest;whiteSpace=wrap;html=1;fontSize=12;fontFamily=Helvetica;fontColor=default;" parent="Nv-1vYLAJScvbzzwSCoc-55" vertex="1">
          <mxGeometry y="100" width="170" height="22" as="geometry" />
        </mxCell>
        <mxCell id="Nv-1vYLAJScvbzzwSCoc-62" value="Boya" style="swimlane;fontStyle=1;align=center;verticalAlign=middle;childLayout=stackLayout;horizontal=1;startSize=26;horizontalStack=0;resizeParent=1;resizeParentMax=0;resizeLast=0;collapsible=1;marginBottom=0;whiteSpace=wrap;html=1;fontSize=14;fillColor=#fff2cc;strokeColor=#d6b656;" parent="1" vertex="1">
          <mxGeometry x="840" y="680" width="170" height="78" as="geometry" />
        </mxCell>
        <mxCell id="Nv-1vYLAJScvbzzwSCoc-63" value="// attributes" style="text;strokeColor=none;fillColor=none;align=left;verticalAlign=middle;spacingLeft=4;spacingRight=4;overflow=hidden;rotatable=0;points=[[0,0.5],[1,0.5]];portConstraint=eastwest;whiteSpace=wrap;html=1;fontSize=12;" parent="Nv-1vYLAJScvbzzwSCoc-62" vertex="1">
          <mxGeometry y="26" width="170" height="22" as="geometry" />
        </mxCell>
        <mxCell id="Nv-1vYLAJScvbzzwSCoc-64" value="" style="line;strokeWidth=1;fillColor=none;align=left;verticalAlign=top;spacingTop=-1;spacingLeft=3;spacingRight=3;rotatable=0;labelPosition=right;points=[];portConstraint=eastwest;strokeColor=inherit;fontSize=16;" parent="Nv-1vYLAJScvbzzwSCoc-62" vertex="1">
          <mxGeometry y="48" width="170" height="8" as="geometry" />
        </mxCell>
        <mxCell id="Nv-1vYLAJScvbzzwSCoc-66" value="&lt;font style=&quot;font-size: 12px;&quot;&gt;+&lt;b&gt;@&lt;/b&gt;&amp;nbsp;flotar&lt;/font&gt;(&lt;font style=&quot;font-size: 12px;&quot;&gt;)&lt;/font&gt;" style="text;strokeColor=none;fillColor=none;align=left;verticalAlign=middle;spacingLeft=4;spacingRight=4;overflow=hidden;rotatable=0;points=[[0,0.5],[1,0.5]];portConstraint=eastwest;whiteSpace=wrap;html=1;fontSize=12;fontFamily=Helvetica;fontColor=default;" parent="Nv-1vYLAJScvbzzwSCoc-62" vertex="1">
          <mxGeometry y="56" width="170" height="22" as="geometry" />
        </mxCell>
        <mxCell id="Nv-1vYLAJScvbzzwSCoc-73" value="Velero" style="swimlane;fontStyle=1;align=center;verticalAlign=middle;childLayout=stackLayout;horizontal=1;startSize=26;horizontalStack=0;resizeParent=1;resizeParentMax=0;resizeLast=0;collapsible=1;marginBottom=0;whiteSpace=wrap;html=1;fontSize=14;fillColor=#e1d5e7;strokeColor=#9673a6;" parent="1" vertex="1">
          <mxGeometry x="940" y="446" width="170" height="78" as="geometry" />
        </mxCell>
        <mxCell id="Nv-1vYLAJScvbzzwSCoc-74" value="// attributes" style="text;strokeColor=none;fillColor=none;align=left;verticalAlign=middle;spacingLeft=4;spacingRight=4;overflow=hidden;rotatable=0;points=[[0,0.5],[1,0.5]];portConstraint=eastwest;whiteSpace=wrap;html=1;fontSize=12;" parent="Nv-1vYLAJScvbzzwSCoc-73" vertex="1">
          <mxGeometry y="26" width="170" height="22" as="geometry" />
        </mxCell>
        <mxCell id="Nv-1vYLAJScvbzzwSCoc-75" value="" style="line;strokeWidth=1;fillColor=none;align=left;verticalAlign=top;spacingTop=-1;spacingLeft=3;spacingRight=3;rotatable=0;labelPosition=right;points=[];portConstraint=eastwest;strokeColor=inherit;fontSize=16;" parent="Nv-1vYLAJScvbzzwSCoc-73" vertex="1">
          <mxGeometry y="48" width="170" height="8" as="geometry" />
        </mxCell>
        <mxCell id="Nv-1vYLAJScvbzzwSCoc-76" value="&lt;font style=&quot;font-size: 12px;&quot;&gt;+&lt;b&gt;@&lt;/b&gt;&amp;nbsp;flotar&lt;/font&gt;(&lt;font style=&quot;font-size: 12px;&quot;&gt;)&lt;/font&gt;" style="text;strokeColor=none;fillColor=none;align=left;verticalAlign=middle;spacingLeft=4;spacingRight=4;overflow=hidden;rotatable=0;points=[[0,0.5],[1,0.5]];portConstraint=eastwest;whiteSpace=wrap;html=1;fontSize=12;fontFamily=Helvetica;fontColor=default;" parent="Nv-1vYLAJScvbzzwSCoc-73" vertex="1">
          <mxGeometry y="56" width="170" height="22" as="geometry" />
        </mxCell>
        <mxCell id="Nv-1vYLAJScvbzzwSCoc-77" value="Extends" style="endArrow=block;endSize=10;endFill=0;html=1;rounded=0;labelBackgroundColor=default;strokeColor=default;fontFamily=Helvetica;fontSize=12;fontColor=default;shape=connector;edgeStyle=orthogonalEdgeStyle;" parent="1" source="Nv-1vYLAJScvbzzwSCoc-51" target="Nv-1vYLAJScvbzzwSCoc-20" edge="1">
          <mxGeometry width="160" relative="1" as="geometry">
            <mxPoint x="369" y="456" as="sourcePoint" />
            <mxPoint x="380" y="348" as="targetPoint" />
            <Array as="points">
              <mxPoint x="545" y="403" />
              <mxPoint x="434" y="403" />
            </Array>
          </mxGeometry>
        </mxCell>
        <mxCell id="Nv-1vYLAJScvbzzwSCoc-79" value="" style="endArrow=block;dashed=1;endFill=0;endSize=10;html=1;rounded=0;fontFamily=Helvetica;fontSize=12;fontColor=default;edgeStyle=orthogonalEdgeStyle;" parent="1" source="Nv-1vYLAJScvbzzwSCoc-51" target="Nv-1vYLAJScvbzzwSCoc-35" edge="1">
          <mxGeometry width="160" relative="1" as="geometry">
            <mxPoint x="152" y="500" as="sourcePoint" />
            <mxPoint x="209" y="168" as="targetPoint" />
            <Array as="points">
              <mxPoint x="560" y="310" />
              <mxPoint x="615" y="310" />
            </Array>
          </mxGeometry>
        </mxCell>
        <mxCell id="Nv-1vYLAJScvbzzwSCoc-80" value="" style="endArrow=block;dashed=1;endFill=0;endSize=10;html=1;rounded=0;fontFamily=Helvetica;fontSize=12;fontColor=default;edgeStyle=orthogonalEdgeStyle;" parent="1" source="Nv-1vYLAJScvbzzwSCoc-55" target="Nv-1vYLAJScvbzzwSCoc-2" edge="1">
          <mxGeometry width="160" relative="1" as="geometry">
            <mxPoint x="573" y="456" as="sourcePoint" />
            <mxPoint x="620" y="168" as="targetPoint" />
            <Array as="points">
              <mxPoint x="800" y="290" />
              <mxPoint x="910" y="290" />
            </Array>
          </mxGeometry>
        </mxCell>
        <mxCell id="Nv-1vYLAJScvbzzwSCoc-81" value="" style="endArrow=block;dashed=1;endFill=0;endSize=10;html=1;rounded=0;fontFamily=Helvetica;fontSize=12;fontColor=default;edgeStyle=orthogonalEdgeStyle;" parent="1" source="Nv-1vYLAJScvbzzwSCoc-62" target="Nv-1vYLAJScvbzzwSCoc-2" edge="1">
          <mxGeometry width="160" relative="1" as="geometry">
            <mxPoint x="809" y="456" as="sourcePoint" />
            <mxPoint x="922" y="168" as="targetPoint" />
          </mxGeometry>
        </mxCell>
        <mxCell id="Nv-1vYLAJScvbzzwSCoc-83" value="Extends" style="endArrow=block;endSize=10;endFill=0;html=1;rounded=0;labelBackgroundColor=default;strokeColor=default;fontFamily=Helvetica;fontSize=12;fontColor=default;shape=connector;edgeStyle=orthogonalEdgeStyle;" parent="1" source="Nv-1vYLAJScvbzzwSCoc-55" target="Nv-1vYLAJScvbzzwSCoc-20" edge="1">
          <mxGeometry width="160" relative="1" as="geometry">
            <mxPoint x="530" y="478" as="sourcePoint" />
            <mxPoint x="464" y="348" as="targetPoint" />
            <Array as="points">
              <mxPoint x="775" y="380" />
              <mxPoint x="450" y="380" />
            </Array>
          </mxGeometry>
        </mxCell>
        <mxCell id="Nv-1vYLAJScvbzzwSCoc-84" value="Extends" style="endArrow=block;endSize=10;endFill=0;html=1;rounded=0;labelBackgroundColor=default;strokeColor=default;fontFamily=Helvetica;fontSize=12;fontColor=default;shape=connector;curved=1;" parent="1" source="Nv-1vYLAJScvbzzwSCoc-73" target="Nv-1vYLAJScvbzzwSCoc-38" edge="1">
          <mxGeometry width="160" relative="1" as="geometry">
            <mxPoint x="530" y="478" as="sourcePoint" />
            <mxPoint x="464" y="348" as="targetPoint" />
          </mxGeometry>
        </mxCell>
        <mxCell id="O8dX6aWaGFbElI2QJB16-1" value="" style="endArrow=block;dashed=1;endFill=0;endSize=10;html=1;rounded=0;fontFamily=Helvetica;fontSize=12;fontColor=default;edgeStyle=orthogonalEdgeStyle;" edge="1" parent="1" source="Nv-1vYLAJScvbzzwSCoc-55" target="Nv-1vYLAJScvbzzwSCoc-35">
          <mxGeometry width="160" relative="1" as="geometry">
            <mxPoint x="570" y="478" as="sourcePoint" />
            <mxPoint x="625" y="168" as="targetPoint" />
            <Array as="points">
              <mxPoint x="740" y="310" />
              <mxPoint x="630" y="310" />
            </Array>
          </mxGeometry>
        </mxCell>
      </root>
    </mxGraphModel>
  </diagram>
</mxfile>
